PathFileType	4	(X/Y/Z)	./resultDataOpenSim/trcMotMarkerGrf/sub06/qtm-01-02.trc
DataRate	CameraRate	NumFrames	NumMarkers	Units	OrigDataRate	OrigDataStartFrame	OrigNumFrames
250.000000	250.000000	9	24	m	250.000000	190	504
Frame#	Time	L.Toe.Tip			R.Toe.Tip			L.Ankle.Lat			R.Ankle.Lat			L.Ankle.Med			R.Ankle.Med			L.Heel			R.Heel			L.Knee.Lat			R.Knee.Lat			L.Knee.Med			R.Knee.Med			L.Thigh.Upper			R.Thigh.Upper			L.ASIS			R.ASIS			V.Sacral			L.Acromium			R.Acromium			C7			L.Elbow			R.Elbow			L.Wrist.Lat			R.Wrist.Lat
		X1	Y1	Z1	X2	Y2	Z2	X3	Y3	Z3	X4	Y4	Z4	X5	Y5	Z5	X6	Y6	Z6	X7	Y7	Z7	X8	Y8	Z8	X9	Y9	Z9	X10	Y10	Z10	X11	Y11	Z11	X12	Y12	Z12	X13	Y13	Z13	X14	Y14	Z14	X15	Y15	Z15	X16	Y16	Z16	X17	Y17	Z17	X18	Y18	Z18	X19	Y19	Z19	X20	Y20	Z20	X21	Y21	Z21	X22	Y22	Z22	X23	Y23	Z23	X24	Y24	Z24

190	0.756	0.018690518	0.035389782	-0.071820524	-0.48799689	0.084958074	0.095422898	-0.10451048	0.066796763	-0.095356094	-0.51223919	0.22303186	0.11826533	-0.10663432	0.079595165	-0.0077642581	-0.47112214	0.21238791	0.038464363	-0.18115353	0.039622354	-0.052563148	-0.54349395	0.26141573	0.052706062	-0.030864445	0.43343367	-0.1149	-0.17929017	0.39684819	0.1639895	-0.060230393	0.43128637	0.0045282772	-0.1734038	0.37820205	0.028867414	-0.16897711	0.80576769	-0.18099759	-0.24115263	0.7586843	0.15320857	-0.11170437	0.84339303	-0.12316162	-0.14658195	0.82456775	0.12732207	-0.31309523	0.90826333	-0.011456508	-0.19180393	1.3092962	-0.1976365	-0.19680947	1.3076247	0.1655262	-0.2710861	1.3486226	-0.018148145	-0.27002292	1.0055224	-0.2482199	-0.23598066	0.99071806	0.2422649	-0.17666253	0.78263302	-0.27378041	-0.036988239	0.84208102	0.24216185
191	0.76	0.01863634	0.035382369	-0.0718753	-0.47158824	0.085230748	0.096905637	-0.10456792	0.066815993	-0.095398785	-0.49828459	0.22290495	0.11825763	-0.10670998	0.079720284	-0.0078096166	-0.45673796	0.21235652	0.038378512	-0.1811948	0.039680223	-0.052565131	-0.52943451	0.26006846	0.051912434	-0.029470946	0.43332293	-0.11504495	-0.16728916	0.39976408	0.16435763	-0.058601398	0.43141952	0.0044084864	-0.16085399	0.38078053	0.029262738	-0.16427221	0.80680616	-0.18145643	-0.2350999	0.76124018	0.15356662	-0.10648323	0.84454251	-0.12380291	-0.14049508	0.82643475	0.12692334	-0.30685849	0.91011434	-0.012200245	-0.18542988	1.3114149	-0.19742135	-0.1911315	1.3094061	0.16573537	-0.26490528	1.3504199	-0.018084043	-0.26211975	1.0070817	-0.24876481	-0.23215312	0.99265932	0.24175235	-0.16660553	0.78495145	-0.27374508	-0.035307872	0.84154386	0.24237035
192	0.764	0.018587102	0.035387459	-0.07193737	-0.45497544	0.085386246	0.098385402	-0.1046162	0.066842525	-0.095429239	-0.48422968	0.22251907	0.11823019	-0.10678495	0.079839974	-0.007840889	-0.44228254	0.21211664	0.038370666	-0.18122053	0.039727049	-0.052510182	-0.51547293	0.25855909	0.051251548	-0.02813645	0.43323323	-0.11511623	-0.15538507	0.40281219	0.1646701	-0.057089053	0.43153939	0.00434461	-0.14821142	0.38341962	0.029672216	-0.1597091	0.80784425	-0.18190384	-0.22863934	0.7637392	0.15395089	-0.10117702	0.84576365	-0.12448329	-0.1341788	0.82824277	0.12631079	-0.30054781	0.91215028	-0.012861388	-0.17908545	1.3135724	-0.19718595	-0.18542752	1.3111886	0.16594102	-0.25861824	1.3522145	-0.018095526	-0.25423888	1.0086731	-0.24932018	-0.22843459	0.99464151	0.24127268	-0.15654297	0.78735157	-0.2737283	-0.033641383	0.84106199	0.24260023
193	0.768	0.018547685	0.035399545	-0.071992915	-0.43810969	0.085455093	0.099879316	-0.10465513	0.06687703	-0.095447057	-0.47007596	0.22187073	0.11818437	-0.10686402	0.079952937	-0.0078627077	-0.4277533	0.21167016	0.038380003	-0.18122994	0.039761388	-0.05239523	-0.50167925	0.25688998	0.050761167	-0.026856683	0.43315577	-0.11511983	-0.14358421	0.40596274	0.16492557	-0.055726469	0.43163031	0.0043279066	-0.13560141	0.38614279	0.030068121	-0.15520825	0.808901	-0.18231204	-0.22178623	0.76616361	0.15431631	-0.095801756	0.8470562	-0.12518768	-0.12756187	0.82996771	0.12542392	-0.29432811	0.91426582	-0.013514348	-0.17276361	1.3157611	-0.19693741	-0.17969574	1.3129731	0.16613526	-0.25230665	1.3540225	-0.018105274	-0.24638173	1.01028	-0.24989991	-0.22471575	0.99666109	0.24079848	-0.14642393	0.78983677	-0.27368378	-0.032008404	0.84062286	0.24286584
194	0.772	0.018517859	0.035403247	-0.072020229	-0.42099695	0.085416998	0.10137153	-0.10469316	0.066916882	-0.095457926	-0.45583838	0.22095343	0.11812023	-0.10695174	0.080064177	-0.007879217	-0.41316692	0.21103834	0.038371222	-0.18123417	0.039797599	-0.052264018	-0.48798318	0.25499896	0.050390837	-0.025635522	0.43308271	-0.11506819	-0.13189724	0.40919467	0.16512098	-0.054564029	0.43167812	0.0043337563	-0.12320651	0.38894665	0.03033929	-0.15055009	0.81000595	-0.18266877	-0.21458123	0.76851508	0.15462435	-0.090407195	0.84840863	-0.12589402	-0.12071054	0.83164541	0.12432057	-0.28833936	0.9163016	-0.014150466	-0.16645649	1.3179727	-0.19667749	-0.17393356	1.3147519	0.16631169	-0.2460688	1.3558504	-0.018023587	-0.23855322	1.0118834	-0.25053178	-0.22094463	0.9987121	0.24030599	-0.1361701	0.7924206	-0.27355047	-0.030435052	0.84022086	0.24317532
195	0.776	0.018490665	0.035382342	-0.07200534	-0.40367661	0.085231823	0.10281199	-0.10475342	0.066956967	-0.095480068	-0.44152493	0.21977947	0.11803776	-0.10704451	0.080178662	-0.0078938534	-0.39850722	0.21026392	0.038371224	-0.18125143	0.039854607	-0.052173105	-0.47432162	0.25283038	0.050090012	-0.024483841	0.43301123	-0.11497683	-0.12033973	0.41249601	0.16525255	-0.053648029	0.43167512	0.0043303856	-0.1110812	0.39183106	0.030423009	-0.14561892	0.81116357	-0.18299368	-0.20705494	0.77079279	0.15483423	-0.085037756	0.84980552	-0.12658197	-0.11391192	0.83339629	0.12324037	-0.28254368	0.91816998	-0.01452883	-0.16016246	1.3201982	-0.19640375	-0.16814163	1.3165107	0.1664693	-0.23991796	1.3576784	-0.017843509	-0.23075212	1.0134756	-0.25122813	-0.21719503	1.0007844	0.23979265	-0.12575536	0.79510429	-0.27330405	-0.02892814	0.83986634	0.24352154
196	0.78	0.018456507	0.035331279	-0.07195301	-0.38615766	0.084899594	0.1041764	-0.10486838	0.066992178	-0.095540854	-0.42710646	0.21839449	0.11794644	-0.10713083	0.080295878	-0.0079096203	-0.38369699	0.20938718	0.038428421	-0.18128921	0.039933128	-0.052125039	-0.46066718	0.25036412	0.049828075	-0.023400403	0.43294124	-0.11485376	-0.10893289	0.41585972	0.16532373	-0.052976369	0.43162894	0.0043148938	-0.09907498	0.39483779	0.030414428	-0.14053802	0.81234107	-0.18331811	-0.19924789	0.77299412	0.15490839	-0.079706372	0.85123059	-0.12723999	-0.10747646	0.83533967	0.12243964	-0.27678889	0.9198997	-0.014341218	-0.153886	1.3224275	-0.1961166	-0.16232306	1.3182383	0.1666116	-0.23380674	1.3594771	-0.017616495	-0.22295558	1.0150722	-0.25194594	-0.2135518	1.0028682	0.23926789	-0.11521861	0.79787023	-0.2729636	-0.027479874	0.83957377	0.24389289
197	0.784	0.018407668	0.0352605	-0.071887908	-0.36841308	0.084450359	0.10548145	-0.10504688	0.0670237	-0.095648061	-0.41253333	0.21685067	0.11786596	-0.10720507	0.080410086	-0.0079246926	-0.3686826	0.20840302	0.038527644	-0.18134208	0.040032271	-0.052115755	-0.44699655	0.24760739	0.049581687	-0.022357199	0.43287006	-0.11469573	-0.097697731	0.41927785	0.16535333	-0.052467866	0.43156736	0.0043362345	-0.087036004	0.39802124	0.030457068	-0.13547737	0.81350024	-0.18364242	-0.19127573	0.77513249	0.15483997	-0.074393473	0.85267009	-0.12786899	-0.1014561	0.83748635	0.12196422	-0.27101114	0.92155954	-0.013631926	-0.14762935	1.3246515	-0.19582001	-0.1564811	1.3199317	0.16674146	-0.22769994	1.3612295	-0.017383787	-0.21511182	1.0166908	-0.25258542	-0.20999019	1.0049591	0.23874704	-0.10461459	0.80069545	-0.27255676	-0.026081291	0.83934453	0.24428446
198	0.788	0.018347126	0.035195105	-0.071841915	-0.35042173	0.083897176	0.10673963	-0.10523991	0.067063667	-0.0957609	-0.39778668	0.21516192	0.11781043	-0.10727504	0.080514537	-0.0079285519	-0.35351551	0.20724854	0.038607661	-0.1814094	0.040175704	-0.052222648	-0.43327161	0.24458079	0.049343887	-0.021323406	0.43279253	-0.1144992	-0.086632317	0.42273386	0.1653662	-0.052040923	0.43150369	0.0044298918	-0.074962189	0.40139545	0.030590902	-0.13043931	0.81462793	-0.18394072	-0.18338554	0.77725793	0.15469135	-0.069063617	0.85411909	-0.1284783	-0.095658364	0.83975083	0.12166312	-0.26525993	0.92319883	-0.012920775	-0.14139	1.3268627	-0.19551727	-0.15061998	1.3215939	0.16685817	-0.221592	1.3629321	-0.017160717	-0.20715647	1.0183188	-0.25303146	-0.20642748	1.0070586	0.23824312	-0.093978922	0.80356198	-0.2721033	-0.02472906	0.83916769	0.24469688
